<svg width="16" height="16" viewBox="0 0 16 16" fill="none" xmlns="http://www.w3.org/2000/svg">
<path d="M7.99982 0.319824C3.75822 0.319824 0.319824 3.75822 0.319824 7.99982C0.319824 12.2414 3.75822 15.6798 7.99982 15.6798C12.2414 15.6798 15.6798 12.2414 15.6798 7.99982C15.6798 3.75822 12.2414 0.319824 7.99982 0.319824ZM6.11982 11.183H4.56462V6.17822H6.11982V11.183ZM5.33262 5.56382C4.84142 5.56382 4.52382 5.21582 4.52382 4.78542C4.52382 4.34622 4.85102 4.00862 5.35262 4.00862C5.85422 4.00862 6.16142 4.34622 6.17102 4.78542C6.17102 5.21582 5.85422 5.56382 5.33262 5.56382ZM11.7998 11.183H10.2446V8.40942C10.2446 7.76382 10.019 7.32542 9.45662 7.32542C9.02702 7.32542 8.77182 7.62222 8.65902 7.90782C8.61742 8.00942 8.60702 8.15342 8.60702 8.29662V11.1822H7.05102V7.77422C7.05102 7.14942 7.03102 6.62702 7.01022 6.17742H8.36142L8.43262 6.87262H8.46382C8.66862 6.54622 9.17022 6.06462 10.0094 6.06462C11.0326 6.06462 11.7998 6.75022 11.7998 8.22382V11.183V11.183Z" fill="black"/>
</svg>
