<svg width="16" height="16" viewBox="0 0 16 16" fill="none" xmlns="http://www.w3.org/2000/svg">
<path d="M1.33617 14.6668L2.23751 11.3548C1.6436 10.3367 1.33157 9.17882 1.33351 8.00016C1.33351 4.31816 4.31817 1.3335 8.00017 1.3335C11.6822 1.3335 14.6668 4.31816 14.6668 8.00016C14.6668 11.6822 11.6822 14.6668 8.00017 14.6668C6.82202 14.6687 5.66461 14.3569 4.64684 13.7635L1.33617 14.6668ZM5.59417 4.87216C5.50808 4.87751 5.42395 4.90018 5.34684 4.93883C5.27452 4.97978 5.2085 5.03098 5.15084 5.09083C5.07084 5.16616 5.02551 5.2315 4.97684 5.29483C4.73045 5.61549 4.59791 6.00911 4.60017 6.4135C4.60151 6.74016 4.68684 7.05816 4.82017 7.3555C5.09284 7.95683 5.54151 8.5935 6.13417 9.1835C6.27684 9.3255 6.41617 9.46816 6.56617 9.60083C7.30176 10.2485 8.17834 10.7155 9.12617 10.9648L9.50551 11.0228C9.62884 11.0295 9.75217 11.0202 9.87617 11.0142C10.0703 11.0041 10.2599 10.9516 10.4315 10.8602C10.5188 10.8152 10.604 10.7663 10.6868 10.7135C10.6868 10.7135 10.7155 10.6948 10.7702 10.6535C10.8602 10.5868 10.9155 10.5395 10.9902 10.4615C11.0455 10.4042 11.0935 10.3368 11.1302 10.2602C11.1822 10.1515 11.2342 9.94416 11.2555 9.7715C11.2715 9.6395 11.2668 9.5675 11.2648 9.52283C11.2622 9.4515 11.2028 9.3775 11.1382 9.34616L10.7502 9.17216C10.7502 9.17216 10.1702 8.9195 9.81617 8.75816C9.77885 8.74189 9.73885 8.73263 9.69817 8.73083C9.65256 8.72615 9.60647 8.73128 9.56301 8.74588C9.51954 8.76048 9.4797 8.78422 9.44617 8.8155V8.81416C9.44284 8.81416 9.39817 8.85216 8.91617 9.43616C8.88851 9.47334 8.8504 9.50143 8.80671 9.51687C8.76301 9.5323 8.71572 9.53438 8.67084 9.52283C8.6274 9.51121 8.58485 9.49651 8.5435 9.47883C8.46084 9.44416 8.43217 9.43083 8.37551 9.40616L8.37217 9.40483C7.99078 9.23831 7.63765 9.01339 7.32551 8.73816C7.24151 8.66483 7.16351 8.58483 7.08351 8.5075C6.82122 8.25632 6.59265 7.97217 6.4035 7.66216L6.36417 7.59883C6.33592 7.55627 6.31308 7.51036 6.29617 7.46216C6.27084 7.36416 6.33684 7.2855 6.33684 7.2855C6.33684 7.2855 6.49884 7.10816 6.57417 7.01216C6.6369 6.93238 6.69542 6.84938 6.7495 6.7635C6.82817 6.63683 6.85284 6.50683 6.81151 6.40616C6.62484 5.95016 6.43151 5.49616 6.23284 5.0455C6.19351 4.95616 6.07684 4.89216 5.97084 4.8795C5.93484 4.8755 5.89884 4.8715 5.86284 4.86883C5.77331 4.86438 5.68359 4.86527 5.59417 4.8715V4.87216Z" fill="black"/>
</svg>
