<svg width="16" height="16" viewBox="0 0 16 16" fill="none" xmlns="http://www.w3.org/2000/svg">
<path d="M8 1C4.13438 1 1 4.13438 1 8C1 11.8656 4.13438 15 8 15C11.8656 15 15 11.8656 15 8C15 4.13438 11.8656 1 8 1ZM11.3641 6.27656C11.3687 6.35 11.3687 6.42656 11.3687 6.50156C11.3687 8.79531 9.62188 11.4375 6.42969 11.4375C5.44531 11.4375 4.53281 11.1516 3.76406 10.6594C3.90469 10.675 4.03906 10.6812 4.18281 10.6812C4.99531 10.6812 5.74219 10.4063 6.3375 9.94063C5.575 9.925 4.93437 9.425 4.71562 8.7375C4.98281 8.77656 5.22344 8.77656 5.49844 8.70625C5.10582 8.62648 4.75293 8.41325 4.49971 8.10279C4.2465 7.79232 4.10857 7.40376 4.10938 7.00313V6.98125C4.33906 7.11094 4.60938 7.19062 4.89219 7.20156C4.65444 7.04312 4.45947 6.82845 4.32455 6.57661C4.18963 6.32476 4.11894 6.04352 4.11875 5.75781C4.11875 5.43437 4.20313 5.13906 4.35469 4.88281C4.79047 5.41928 5.33427 5.85803 5.95073 6.17057C6.56719 6.48311 7.24251 6.66243 7.93281 6.69688C7.6875 5.51719 8.56875 4.5625 9.62813 4.5625C10.1281 4.5625 10.5781 4.77187 10.8953 5.10938C11.2875 5.03594 11.6625 4.88906 11.9969 4.69219C11.8672 5.09375 11.5953 5.43281 11.2344 5.64687C11.5844 5.60937 11.9219 5.5125 12.2344 5.37656C11.9984 5.72344 11.7031 6.03125 11.3641 6.27656V6.27656Z" fill="black"/>
</svg>
